%TF.GenerationSoftware,KiCad,Pcbnew,10.0.2*%
%TF.CreationDate,2026-05-30T12:41:26-06:00*%
%TF.ProjectId,Bongo cat,426f6e67-6f20-4636-9174-2e6b69636164,rev?*%
%TF.SameCoordinates,Original*%
%TF.FileFunction,Copper,L2,Bot*%
%TF.FilePolarity,Positive*%
%FSLAX46Y46*%
G04 Gerber Fmt 4.6, Leading zero omitted, Abs format (unit mm)*
G04 Created by KiCad (PCBNEW 10.0.2) date 2026-05-30 12:41:26*
%MOMM*%
%LPD*%
G01*
G04 APERTURE LIST*
%ADD10C,0.075000*%
%TA.AperFunction,NonConductor*%
%ADD11C,0.075000*%
%TD*%
%TA.AperFunction,ComponentPad*%
%ADD12C,2.000000*%
%TD*%
%TA.AperFunction,ComponentPad*%
%ADD13R,1.700000X1.700000*%
%TD*%
%TA.AperFunction,ComponentPad*%
%ADD14C,1.700000*%
%TD*%
G04 APERTURE END LIST*
D10*
D11*
X145393515Y-107445100D02*
X145350658Y-107459385D01*
X145350658Y-107459385D02*
X145279229Y-107459385D01*
X145279229Y-107459385D02*
X145250658Y-107445100D01*
X145250658Y-107445100D02*
X145236372Y-107430814D01*
X145236372Y-107430814D02*
X145222086Y-107402242D01*
X145222086Y-107402242D02*
X145222086Y-107373671D01*
X145222086Y-107373671D02*
X145236372Y-107345100D01*
X145236372Y-107345100D02*
X145250658Y-107330814D01*
X145250658Y-107330814D02*
X145279229Y-107316528D01*
X145279229Y-107316528D02*
X145336372Y-107302242D01*
X145336372Y-107302242D02*
X145364943Y-107287957D01*
X145364943Y-107287957D02*
X145379229Y-107273671D01*
X145379229Y-107273671D02*
X145393515Y-107245100D01*
X145393515Y-107245100D02*
X145393515Y-107216528D01*
X145393515Y-107216528D02*
X145379229Y-107187957D01*
X145379229Y-107187957D02*
X145364943Y-107173671D01*
X145364943Y-107173671D02*
X145336372Y-107159385D01*
X145336372Y-107159385D02*
X145264943Y-107159385D01*
X145264943Y-107159385D02*
X145222086Y-107173671D01*
X145093515Y-107459385D02*
X145093515Y-107159385D01*
X145093515Y-107159385D02*
X145022086Y-107159385D01*
X145022086Y-107159385D02*
X144979229Y-107173671D01*
X144979229Y-107173671D02*
X144950658Y-107202242D01*
X144950658Y-107202242D02*
X144936372Y-107230814D01*
X144936372Y-107230814D02*
X144922086Y-107287957D01*
X144922086Y-107287957D02*
X144922086Y-107330814D01*
X144922086Y-107330814D02*
X144936372Y-107387957D01*
X144936372Y-107387957D02*
X144950658Y-107416528D01*
X144950658Y-107416528D02*
X144979229Y-107445100D01*
X144979229Y-107445100D02*
X145022086Y-107459385D01*
X145022086Y-107459385D02*
X145093515Y-107459385D01*
X144807801Y-107373671D02*
X144664944Y-107373671D01*
X144836372Y-107459385D02*
X144736372Y-107159385D01*
X144736372Y-107159385D02*
X144636372Y-107459385D01*
D10*
D11*
X145393515Y-104945100D02*
X145350658Y-104959385D01*
X145350658Y-104959385D02*
X145279229Y-104959385D01*
X145279229Y-104959385D02*
X145250658Y-104945100D01*
X145250658Y-104945100D02*
X145236372Y-104930814D01*
X145236372Y-104930814D02*
X145222086Y-104902242D01*
X145222086Y-104902242D02*
X145222086Y-104873671D01*
X145222086Y-104873671D02*
X145236372Y-104845100D01*
X145236372Y-104845100D02*
X145250658Y-104830814D01*
X145250658Y-104830814D02*
X145279229Y-104816528D01*
X145279229Y-104816528D02*
X145336372Y-104802242D01*
X145336372Y-104802242D02*
X145364943Y-104787957D01*
X145364943Y-104787957D02*
X145379229Y-104773671D01*
X145379229Y-104773671D02*
X145393515Y-104745100D01*
X145393515Y-104745100D02*
X145393515Y-104716528D01*
X145393515Y-104716528D02*
X145379229Y-104687957D01*
X145379229Y-104687957D02*
X145364943Y-104673671D01*
X145364943Y-104673671D02*
X145336372Y-104659385D01*
X145336372Y-104659385D02*
X145264943Y-104659385D01*
X145264943Y-104659385D02*
X145222086Y-104673671D01*
X144922086Y-104930814D02*
X144936372Y-104945100D01*
X144936372Y-104945100D02*
X144979229Y-104959385D01*
X144979229Y-104959385D02*
X145007801Y-104959385D01*
X145007801Y-104959385D02*
X145050658Y-104945100D01*
X145050658Y-104945100D02*
X145079229Y-104916528D01*
X145079229Y-104916528D02*
X145093515Y-104887957D01*
X145093515Y-104887957D02*
X145107801Y-104830814D01*
X145107801Y-104830814D02*
X145107801Y-104787957D01*
X145107801Y-104787957D02*
X145093515Y-104730814D01*
X145093515Y-104730814D02*
X145079229Y-104702242D01*
X145079229Y-104702242D02*
X145050658Y-104673671D01*
X145050658Y-104673671D02*
X145007801Y-104659385D01*
X145007801Y-104659385D02*
X144979229Y-104659385D01*
X144979229Y-104659385D02*
X144936372Y-104673671D01*
X144936372Y-104673671D02*
X144922086Y-104687957D01*
X144650658Y-104959385D02*
X144793515Y-104959385D01*
X144793515Y-104959385D02*
X144793515Y-104659385D01*
D10*
D11*
X145222086Y-101673671D02*
X145250658Y-101659385D01*
X145250658Y-101659385D02*
X145293515Y-101659385D01*
X145293515Y-101659385D02*
X145336372Y-101673671D01*
X145336372Y-101673671D02*
X145364943Y-101702242D01*
X145364943Y-101702242D02*
X145379229Y-101730814D01*
X145379229Y-101730814D02*
X145393515Y-101787957D01*
X145393515Y-101787957D02*
X145393515Y-101830814D01*
X145393515Y-101830814D02*
X145379229Y-101887957D01*
X145379229Y-101887957D02*
X145364943Y-101916528D01*
X145364943Y-101916528D02*
X145336372Y-101945100D01*
X145336372Y-101945100D02*
X145293515Y-101959385D01*
X145293515Y-101959385D02*
X145264943Y-101959385D01*
X145264943Y-101959385D02*
X145222086Y-101945100D01*
X145222086Y-101945100D02*
X145207800Y-101930814D01*
X145207800Y-101930814D02*
X145207800Y-101830814D01*
X145207800Y-101830814D02*
X145264943Y-101830814D01*
X145079229Y-101959385D02*
X145079229Y-101659385D01*
X145079229Y-101659385D02*
X144907800Y-101959385D01*
X144907800Y-101959385D02*
X144907800Y-101659385D01*
X144764943Y-101959385D02*
X144764943Y-101659385D01*
X144764943Y-101659385D02*
X144693514Y-101659385D01*
X144693514Y-101659385D02*
X144650657Y-101673671D01*
X144650657Y-101673671D02*
X144622086Y-101702242D01*
X144622086Y-101702242D02*
X144607800Y-101730814D01*
X144607800Y-101730814D02*
X144593514Y-101787957D01*
X144593514Y-101787957D02*
X144593514Y-101830814D01*
X144593514Y-101830814D02*
X144607800Y-101887957D01*
X144607800Y-101887957D02*
X144622086Y-101916528D01*
X144622086Y-101916528D02*
X144650657Y-101945100D01*
X144650657Y-101945100D02*
X144693514Y-101959385D01*
X144693514Y-101959385D02*
X144764943Y-101959385D01*
D10*
D11*
X145407800Y-99659385D02*
X145222086Y-99659385D01*
X145222086Y-99659385D02*
X145322086Y-99773671D01*
X145322086Y-99773671D02*
X145279229Y-99773671D01*
X145279229Y-99773671D02*
X145250658Y-99787957D01*
X145250658Y-99787957D02*
X145236372Y-99802242D01*
X145236372Y-99802242D02*
X145222086Y-99830814D01*
X145222086Y-99830814D02*
X145222086Y-99902242D01*
X145222086Y-99902242D02*
X145236372Y-99930814D01*
X145236372Y-99930814D02*
X145250658Y-99945100D01*
X145250658Y-99945100D02*
X145279229Y-99959385D01*
X145279229Y-99959385D02*
X145364943Y-99959385D01*
X145364943Y-99959385D02*
X145393515Y-99945100D01*
X145393515Y-99945100D02*
X145407800Y-99930814D01*
X145136372Y-99659385D02*
X145036372Y-99959385D01*
X145036372Y-99959385D02*
X144936372Y-99659385D01*
X144864943Y-99659385D02*
X144679229Y-99659385D01*
X144679229Y-99659385D02*
X144779229Y-99773671D01*
X144779229Y-99773671D02*
X144736372Y-99773671D01*
X144736372Y-99773671D02*
X144707801Y-99787957D01*
X144707801Y-99787957D02*
X144693515Y-99802242D01*
X144693515Y-99802242D02*
X144679229Y-99830814D01*
X144679229Y-99830814D02*
X144679229Y-99902242D01*
X144679229Y-99902242D02*
X144693515Y-99930814D01*
X144693515Y-99930814D02*
X144707801Y-99945100D01*
X144707801Y-99945100D02*
X144736372Y-99959385D01*
X144736372Y-99959385D02*
X144822086Y-99959385D01*
X144822086Y-99959385D02*
X144850658Y-99945100D01*
X144850658Y-99945100D02*
X144864943Y-99930814D01*
D10*
D11*
X146222086Y-87673671D02*
X146250658Y-87659385D01*
X146250658Y-87659385D02*
X146293515Y-87659385D01*
X146293515Y-87659385D02*
X146336372Y-87673671D01*
X146336372Y-87673671D02*
X146364943Y-87702242D01*
X146364943Y-87702242D02*
X146379229Y-87730814D01*
X146379229Y-87730814D02*
X146393515Y-87787957D01*
X146393515Y-87787957D02*
X146393515Y-87830814D01*
X146393515Y-87830814D02*
X146379229Y-87887957D01*
X146379229Y-87887957D02*
X146364943Y-87916528D01*
X146364943Y-87916528D02*
X146336372Y-87945100D01*
X146336372Y-87945100D02*
X146293515Y-87959385D01*
X146293515Y-87959385D02*
X146264943Y-87959385D01*
X146264943Y-87959385D02*
X146222086Y-87945100D01*
X146222086Y-87945100D02*
X146207800Y-87930814D01*
X146207800Y-87930814D02*
X146207800Y-87830814D01*
X146207800Y-87830814D02*
X146264943Y-87830814D01*
X146079229Y-87959385D02*
X146079229Y-87659385D01*
X146079229Y-87659385D02*
X145907800Y-87959385D01*
X145907800Y-87959385D02*
X145907800Y-87659385D01*
X145764943Y-87959385D02*
X145764943Y-87659385D01*
X145764943Y-87659385D02*
X145693514Y-87659385D01*
X145693514Y-87659385D02*
X145650657Y-87673671D01*
X145650657Y-87673671D02*
X145622086Y-87702242D01*
X145622086Y-87702242D02*
X145607800Y-87730814D01*
X145607800Y-87730814D02*
X145593514Y-87787957D01*
X145593514Y-87787957D02*
X145593514Y-87830814D01*
X145593514Y-87830814D02*
X145607800Y-87887957D01*
X145607800Y-87887957D02*
X145622086Y-87916528D01*
X145622086Y-87916528D02*
X145650657Y-87945100D01*
X145650657Y-87945100D02*
X145693514Y-87959385D01*
X145693514Y-87959385D02*
X145764943Y-87959385D01*
D10*
D11*
X148907800Y-92659385D02*
X148722086Y-92659385D01*
X148722086Y-92659385D02*
X148822086Y-92773671D01*
X148822086Y-92773671D02*
X148779229Y-92773671D01*
X148779229Y-92773671D02*
X148750658Y-92787957D01*
X148750658Y-92787957D02*
X148736372Y-92802242D01*
X148736372Y-92802242D02*
X148722086Y-92830814D01*
X148722086Y-92830814D02*
X148722086Y-92902242D01*
X148722086Y-92902242D02*
X148736372Y-92930814D01*
X148736372Y-92930814D02*
X148750658Y-92945100D01*
X148750658Y-92945100D02*
X148779229Y-92959385D01*
X148779229Y-92959385D02*
X148864943Y-92959385D01*
X148864943Y-92959385D02*
X148893515Y-92945100D01*
X148893515Y-92945100D02*
X148907800Y-92930814D01*
X148636372Y-92659385D02*
X148536372Y-92959385D01*
X148536372Y-92959385D02*
X148436372Y-92659385D01*
X148364943Y-92659385D02*
X148179229Y-92659385D01*
X148179229Y-92659385D02*
X148279229Y-92773671D01*
X148279229Y-92773671D02*
X148236372Y-92773671D01*
X148236372Y-92773671D02*
X148207801Y-92787957D01*
X148207801Y-92787957D02*
X148193515Y-92802242D01*
X148193515Y-92802242D02*
X148179229Y-92830814D01*
X148179229Y-92830814D02*
X148179229Y-92902242D01*
X148179229Y-92902242D02*
X148193515Y-92930814D01*
X148193515Y-92930814D02*
X148207801Y-92945100D01*
X148207801Y-92945100D02*
X148236372Y-92959385D01*
X148236372Y-92959385D02*
X148322086Y-92959385D01*
X148322086Y-92959385D02*
X148350658Y-92945100D01*
X148350658Y-92945100D02*
X148364943Y-92930814D01*
D10*
D11*
X161407800Y-88159385D02*
X161222086Y-88159385D01*
X161222086Y-88159385D02*
X161322086Y-88273671D01*
X161322086Y-88273671D02*
X161279229Y-88273671D01*
X161279229Y-88273671D02*
X161250658Y-88287957D01*
X161250658Y-88287957D02*
X161236372Y-88302242D01*
X161236372Y-88302242D02*
X161222086Y-88330814D01*
X161222086Y-88330814D02*
X161222086Y-88402242D01*
X161222086Y-88402242D02*
X161236372Y-88430814D01*
X161236372Y-88430814D02*
X161250658Y-88445100D01*
X161250658Y-88445100D02*
X161279229Y-88459385D01*
X161279229Y-88459385D02*
X161364943Y-88459385D01*
X161364943Y-88459385D02*
X161393515Y-88445100D01*
X161393515Y-88445100D02*
X161407800Y-88430814D01*
X161136372Y-88159385D02*
X161036372Y-88459385D01*
X161036372Y-88459385D02*
X160936372Y-88159385D01*
X160864943Y-88159385D02*
X160679229Y-88159385D01*
X160679229Y-88159385D02*
X160779229Y-88273671D01*
X160779229Y-88273671D02*
X160736372Y-88273671D01*
X160736372Y-88273671D02*
X160707801Y-88287957D01*
X160707801Y-88287957D02*
X160693515Y-88302242D01*
X160693515Y-88302242D02*
X160679229Y-88330814D01*
X160679229Y-88330814D02*
X160679229Y-88402242D01*
X160679229Y-88402242D02*
X160693515Y-88430814D01*
X160693515Y-88430814D02*
X160707801Y-88445100D01*
X160707801Y-88445100D02*
X160736372Y-88459385D01*
X160736372Y-88459385D02*
X160822086Y-88459385D01*
X160822086Y-88459385D02*
X160850658Y-88445100D01*
X160850658Y-88445100D02*
X160864943Y-88430814D01*
D10*
D11*
X161907800Y-101159385D02*
X161722086Y-101159385D01*
X161722086Y-101159385D02*
X161822086Y-101273671D01*
X161822086Y-101273671D02*
X161779229Y-101273671D01*
X161779229Y-101273671D02*
X161750658Y-101287957D01*
X161750658Y-101287957D02*
X161736372Y-101302242D01*
X161736372Y-101302242D02*
X161722086Y-101330814D01*
X161722086Y-101330814D02*
X161722086Y-101402242D01*
X161722086Y-101402242D02*
X161736372Y-101430814D01*
X161736372Y-101430814D02*
X161750658Y-101445100D01*
X161750658Y-101445100D02*
X161779229Y-101459385D01*
X161779229Y-101459385D02*
X161864943Y-101459385D01*
X161864943Y-101459385D02*
X161893515Y-101445100D01*
X161893515Y-101445100D02*
X161907800Y-101430814D01*
X161636372Y-101159385D02*
X161536372Y-101459385D01*
X161536372Y-101459385D02*
X161436372Y-101159385D01*
X161364943Y-101159385D02*
X161179229Y-101159385D01*
X161179229Y-101159385D02*
X161279229Y-101273671D01*
X161279229Y-101273671D02*
X161236372Y-101273671D01*
X161236372Y-101273671D02*
X161207801Y-101287957D01*
X161207801Y-101287957D02*
X161193515Y-101302242D01*
X161193515Y-101302242D02*
X161179229Y-101330814D01*
X161179229Y-101330814D02*
X161179229Y-101402242D01*
X161179229Y-101402242D02*
X161193515Y-101430814D01*
X161193515Y-101430814D02*
X161207801Y-101445100D01*
X161207801Y-101445100D02*
X161236372Y-101459385D01*
X161236372Y-101459385D02*
X161322086Y-101459385D01*
X161322086Y-101459385D02*
X161350658Y-101445100D01*
X161350658Y-101445100D02*
X161364943Y-101430814D01*
D10*
D11*
X162222086Y-97173671D02*
X162250658Y-97159385D01*
X162250658Y-97159385D02*
X162293515Y-97159385D01*
X162293515Y-97159385D02*
X162336372Y-97173671D01*
X162336372Y-97173671D02*
X162364943Y-97202242D01*
X162364943Y-97202242D02*
X162379229Y-97230814D01*
X162379229Y-97230814D02*
X162393515Y-97287957D01*
X162393515Y-97287957D02*
X162393515Y-97330814D01*
X162393515Y-97330814D02*
X162379229Y-97387957D01*
X162379229Y-97387957D02*
X162364943Y-97416528D01*
X162364943Y-97416528D02*
X162336372Y-97445100D01*
X162336372Y-97445100D02*
X162293515Y-97459385D01*
X162293515Y-97459385D02*
X162264943Y-97459385D01*
X162264943Y-97459385D02*
X162222086Y-97445100D01*
X162222086Y-97445100D02*
X162207800Y-97430814D01*
X162207800Y-97430814D02*
X162207800Y-97330814D01*
X162207800Y-97330814D02*
X162264943Y-97330814D01*
X162079229Y-97459385D02*
X162079229Y-97159385D01*
X162079229Y-97159385D02*
X161907800Y-97459385D01*
X161907800Y-97459385D02*
X161907800Y-97159385D01*
X161764943Y-97459385D02*
X161764943Y-97159385D01*
X161764943Y-97159385D02*
X161693514Y-97159385D01*
X161693514Y-97159385D02*
X161650657Y-97173671D01*
X161650657Y-97173671D02*
X161622086Y-97202242D01*
X161622086Y-97202242D02*
X161607800Y-97230814D01*
X161607800Y-97230814D02*
X161593514Y-97287957D01*
X161593514Y-97287957D02*
X161593514Y-97330814D01*
X161593514Y-97330814D02*
X161607800Y-97387957D01*
X161607800Y-97387957D02*
X161622086Y-97416528D01*
X161622086Y-97416528D02*
X161650657Y-97445100D01*
X161650657Y-97445100D02*
X161693514Y-97459385D01*
X161693514Y-97459385D02*
X161764943Y-97459385D01*
D10*
D11*
X161722086Y-93173671D02*
X161750658Y-93159385D01*
X161750658Y-93159385D02*
X161793515Y-93159385D01*
X161793515Y-93159385D02*
X161836372Y-93173671D01*
X161836372Y-93173671D02*
X161864943Y-93202242D01*
X161864943Y-93202242D02*
X161879229Y-93230814D01*
X161879229Y-93230814D02*
X161893515Y-93287957D01*
X161893515Y-93287957D02*
X161893515Y-93330814D01*
X161893515Y-93330814D02*
X161879229Y-93387957D01*
X161879229Y-93387957D02*
X161864943Y-93416528D01*
X161864943Y-93416528D02*
X161836372Y-93445100D01*
X161836372Y-93445100D02*
X161793515Y-93459385D01*
X161793515Y-93459385D02*
X161764943Y-93459385D01*
X161764943Y-93459385D02*
X161722086Y-93445100D01*
X161722086Y-93445100D02*
X161707800Y-93430814D01*
X161707800Y-93430814D02*
X161707800Y-93330814D01*
X161707800Y-93330814D02*
X161764943Y-93330814D01*
X161579229Y-93459385D02*
X161579229Y-93159385D01*
X161579229Y-93159385D02*
X161407800Y-93459385D01*
X161407800Y-93459385D02*
X161407800Y-93159385D01*
X161264943Y-93459385D02*
X161264943Y-93159385D01*
X161264943Y-93159385D02*
X161193514Y-93159385D01*
X161193514Y-93159385D02*
X161150657Y-93173671D01*
X161150657Y-93173671D02*
X161122086Y-93202242D01*
X161122086Y-93202242D02*
X161107800Y-93230814D01*
X161107800Y-93230814D02*
X161093514Y-93287957D01*
X161093514Y-93287957D02*
X161093514Y-93330814D01*
X161093514Y-93330814D02*
X161107800Y-93387957D01*
X161107800Y-93387957D02*
X161122086Y-93416528D01*
X161122086Y-93416528D02*
X161150657Y-93445100D01*
X161150657Y-93445100D02*
X161193514Y-93459385D01*
X161193514Y-93459385D02*
X161264943Y-93459385D01*
D12*
%TO.P,SW2,1,1_1*%
%TO.N,/-*%
X170500000Y-101500000D03*
X164000000Y-101500000D03*
%TO.P,SW2,2,2_2*%
%TO.N,Net-(U1-3V3)*%
X170500000Y-97000000D03*
X164000000Y-97000000D03*
%TD*%
D13*
%TO.P,BT1,1,+_1*%
%TO.N,Net-(BT1-+)*%
X146500000Y-92500000D03*
D14*
%TO.P,BT1,2,-_2*%
%TO.N,/-*%
X146500000Y-89960000D03*
%TD*%
D12*
%TO.P,SW1,1,1_1*%
%TO.N,/-*%
X163500000Y-88500000D03*
X170000000Y-88500000D03*
%TO.P,SW1,2,2_2*%
%TO.N,Net-(U1-3V3)*%
X163500000Y-93000000D03*
X170000000Y-93000000D03*
%TD*%
D13*
%TO.P,U1,1,EN_1*%
%TO.N,unconnected-(U1-EN-Pad1)*%
X152960000Y-87880000D03*
D14*
%TO.P,U1,2,D3_2*%
%TO.N,unconnected-(U1-D3-Pad2)*%
X155500000Y-87880000D03*
%TO.P,U1,3,D2_3*%
%TO.N,unconnected-(U1-D2-Pad3)*%
X152960000Y-90420000D03*
%TO.P,U1,4,D1_4*%
%TO.N,unconnected-(U1-D1-Pad4)*%
X155500000Y-90420000D03*
%TO.P,U1,5,D0_5*%
%TO.N,unconnected-(U1-D0-Pad5)*%
X152960000Y-92960000D03*
%TO.P,U1,6,D4_6*%
%TO.N,unconnected-(U1-D4-Pad6)*%
X155500000Y-92960000D03*
%TO.P,U1,7,D5_7*%
%TO.N,unconnected-(U1-D5-Pad7)*%
X152960000Y-95500000D03*
%TO.P,U1,8,3V3_8*%
%TO.N,Net-(U1-3V3)*%
X155500000Y-95500000D03*
%TO.P,U1,9,VBus_9*%
%TO.N,Net-(BT1-+)*%
X152960000Y-98040000D03*
%TO.P,U1,10,GND_10*%
%TO.N,/-*%
X155500000Y-98040000D03*
%TO.P,U1,11,D6_11*%
%TO.N,unconnected-(U1-D6-Pad11)*%
X152960000Y-100580000D03*
%TO.P,U1,12,D7_12*%
%TO.N,unconnected-(U1-D7-Pad12)*%
X155500000Y-100580000D03*
%TO.P,U1,13,D8_13*%
%TO.N,Net-(U1-D8)*%
X152960000Y-103120000D03*
%TO.P,U1,14,D10_14*%
%TO.N,Net-(U1-D10)*%
X155500000Y-103120000D03*
%TO.P,U1,15,RX_15*%
%TO.N,unconnected-(U1-RX-Pad15)*%
X152960000Y-105660000D03*
%TO.P,U1,16,TX_16*%
%TO.N,unconnected-(U1-TX-Pad16)*%
X155500000Y-105660000D03*
%TD*%
D13*
%TO.P,U2,1,GND_1*%
%TO.N,/-*%
X143000000Y-99880000D03*
D14*
%TO.P,U2,2,VCC_2*%
%TO.N,Net-(U1-3V3)*%
X143000000Y-102420000D03*
%TO.P,U2,3,SCL_3*%
%TO.N,Net-(U1-D8)*%
X143000000Y-104960000D03*
%TO.P,U2,4,SDA_4*%
%TO.N,Net-(U1-D10)*%
X143000000Y-107500000D03*
%TD*%
%TA.AperFunction,Conductor*%
%TO.N,Net-(U1-3V3)*%
G36*
X155034075Y-95692993D02*
G01*
X155099901Y-95807007D01*
X155192993Y-95900099D01*
X155307007Y-95965925D01*
X155370590Y-95982962D01*
X154738282Y-96615269D01*
X154738282Y-96615270D01*
X154792452Y-96654626D01*
X154792451Y-96654626D01*
X154801495Y-96659234D01*
X154852292Y-96707208D01*
X154869087Y-96775029D01*
X154846550Y-96841164D01*
X154801499Y-96880202D01*
X154792182Y-96884949D01*
X154620213Y-97009890D01*
X154469890Y-97160213D01*
X154344949Y-97332182D01*
X154340484Y-97340946D01*
X154292509Y-97391742D01*
X154224688Y-97408536D01*
X154158553Y-97385998D01*
X154119516Y-97340946D01*
X154115050Y-97332182D01*
X153990109Y-97160213D01*
X153839786Y-97009890D01*
X153667820Y-96884951D01*
X153661924Y-96881947D01*
X153659054Y-96880485D01*
X153608259Y-96832512D01*
X153591463Y-96764692D01*
X153613999Y-96698556D01*
X153659054Y-96659515D01*
X153667816Y-96655051D01*
X153722572Y-96615269D01*
X153839786Y-96530109D01*
X153839788Y-96530106D01*
X153839792Y-96530104D01*
X153990104Y-96379792D01*
X153990106Y-96379788D01*
X153990109Y-96379786D01*
X154075890Y-96261717D01*
X154115051Y-96207816D01*
X154119793Y-96198508D01*
X154167763Y-96147711D01*
X154235583Y-96130911D01*
X154301719Y-96153445D01*
X154340763Y-96198500D01*
X154345373Y-96207547D01*
X154384728Y-96261716D01*
X155017037Y-95629408D01*
X155034075Y-95692993D01*
G37*
%TD.AperFunction*%
%TA.AperFunction,Conductor*%
G36*
X154301444Y-93613999D02*
G01*
X154340486Y-93659056D01*
X154344951Y-93667820D01*
X154469890Y-93839786D01*
X154620213Y-93990109D01*
X154792179Y-94115048D01*
X154792181Y-94115049D01*
X154792184Y-94115051D01*
X154801493Y-94119794D01*
X154852290Y-94167766D01*
X154869087Y-94235587D01*
X154846552Y-94301722D01*
X154801505Y-94340760D01*
X154792446Y-94345376D01*
X154792440Y-94345380D01*
X154738282Y-94384727D01*
X154738282Y-94384728D01*
X155370591Y-95017037D01*
X155307007Y-95034075D01*
X155192993Y-95099901D01*
X155099901Y-95192993D01*
X155034075Y-95307007D01*
X155017037Y-95370591D01*
X154384728Y-94738282D01*
X154384727Y-94738282D01*
X154345380Y-94792440D01*
X154345376Y-94792446D01*
X154340760Y-94801505D01*
X154292781Y-94852297D01*
X154224959Y-94869087D01*
X154158826Y-94846543D01*
X154119794Y-94801493D01*
X154115051Y-94792184D01*
X154115049Y-94792181D01*
X154115048Y-94792179D01*
X153990109Y-94620213D01*
X153839786Y-94469890D01*
X153667820Y-94344951D01*
X153659600Y-94340763D01*
X153659054Y-94340485D01*
X153608259Y-94292512D01*
X153591463Y-94224692D01*
X153613999Y-94158556D01*
X153659054Y-94119515D01*
X153667816Y-94115051D01*
X153819130Y-94005116D01*
X153839786Y-93990109D01*
X153839788Y-93990106D01*
X153839792Y-93990104D01*
X153990104Y-93839792D01*
X153990106Y-93839788D01*
X153990109Y-93839786D01*
X154115048Y-93667820D01*
X154115047Y-93667820D01*
X154115051Y-93667816D01*
X154119514Y-93659054D01*
X154167488Y-93608259D01*
X154235308Y-93591463D01*
X154301444Y-93613999D01*
G37*
%TD.AperFunction*%
%TA.AperFunction,Conductor*%
G36*
X173692539Y-84019685D02*
G01*
X173738294Y-84072489D01*
X173749500Y-84124000D01*
X173749500Y-109391935D01*
X173729815Y-109458974D01*
X173677011Y-109504729D01*
X173630809Y-109515821D01*
X150680993Y-110499386D01*
X150675684Y-110499500D01*
X139374500Y-110499500D01*
X139307461Y-110479815D01*
X139261706Y-110427011D01*
X139250500Y-110375500D01*
X139250500Y-98982135D01*
X141649500Y-98982135D01*
X141649500Y-100777870D01*
X141649501Y-100777876D01*
X141655908Y-100837483D01*
X141706202Y-100972328D01*
X141706206Y-100972335D01*
X141792452Y-101087544D01*
X141792455Y-101087547D01*
X141907664Y-101173793D01*
X141907671Y-101173797D01*
X141951983Y-101190324D01*
X142042517Y-101224091D01*
X142102127Y-101230500D01*
X142112685Y-101230499D01*
X142179723Y-101250179D01*
X142200372Y-101266818D01*
X142870591Y-101937037D01*
X142807007Y-101954075D01*
X142692993Y-102019901D01*
X142599901Y-102112993D01*
X142534075Y-102227007D01*
X142517037Y-102290591D01*
X141884728Y-101658282D01*
X141884727Y-101658282D01*
X141845380Y-101712439D01*
X141748904Y-101901782D01*
X141683242Y-102103869D01*
X141683242Y-102103872D01*
X141650000Y-102313753D01*
X141650000Y-102526246D01*
X141683242Y-102736127D01*
X141683242Y-102736130D01*
X141748904Y-102938217D01*
X141845375Y-103127550D01*
X141884728Y-103181716D01*
X142517037Y-102549408D01*
X142534075Y-102612993D01*
X142599901Y-102727007D01*
X142692993Y-102820099D01*
X142807007Y-102885925D01*
X142870590Y-102902962D01*
X142238282Y-103535269D01*
X142238282Y-103535270D01*
X142292452Y-103574626D01*
X142292451Y-103574626D01*
X142301495Y-103579234D01*
X142352292Y-103627208D01*
X142369087Y-103695029D01*
X142346550Y-103761164D01*
X142301499Y-103800202D01*
X142292182Y-103804949D01*
X142120213Y-103929890D01*
X141969890Y-104080213D01*
X141844951Y-104252179D01*
X141748444Y-104441585D01*
X141682753Y-104643760D01*
X141649500Y-104853713D01*
X141649500Y-105066286D01*
X141682753Y-105276239D01*
X141748444Y-105478414D01*
X141844951Y-105667820D01*
X141969890Y-105839786D01*
X142120213Y-105990109D01*
X142292182Y-106115050D01*
X142300946Y-106119516D01*
X142351742Y-106167491D01*
X142368536Y-106235312D01*
X142345998Y-106301447D01*
X142300946Y-106340484D01*
X142292182Y-106344949D01*
X142120213Y-106469890D01*
X141969890Y-106620213D01*
X141844951Y-106792179D01*
X141748444Y-106981585D01*
X141682753Y-107183760D01*
X141649500Y-107393713D01*
X141649500Y-107606286D01*
X141682753Y-107816239D01*
X141748444Y-108018414D01*
X141844951Y-108207820D01*
X141969890Y-108379786D01*
X142120213Y-108530109D01*
X142292179Y-108655048D01*
X142292181Y-108655049D01*
X142292184Y-108655051D01*
X142481588Y-108751557D01*
X142683757Y-108817246D01*
X142893713Y-108850500D01*
X142893714Y-108850500D01*
X143106286Y-108850500D01*
X143106287Y-108850500D01*
X143316243Y-108817246D01*
X143518412Y-108751557D01*
X143707816Y-108655051D01*
X143729789Y-108639086D01*
X143879786Y-108530109D01*
X143879788Y-108530106D01*
X143879792Y-108530104D01*
X144030104Y-108379792D01*
X144030106Y-108379788D01*
X144030109Y-108379786D01*
X144155048Y-108207820D01*
X144155047Y-108207820D01*
X144155051Y-108207816D01*
X144223834Y-108072820D01*
X144271808Y-108022025D01*
X144334319Y-108005116D01*
X145939246Y-108005116D01*
X145939246Y-106613654D01*
X144090641Y-106613654D01*
X144074912Y-106613654D01*
X144007873Y-106593969D01*
X143987231Y-106577335D01*
X143879786Y-106469890D01*
X143707820Y-106344951D01*
X143707115Y-106344591D01*
X143699054Y-106340485D01*
X143648259Y-106292512D01*
X143631463Y-106224692D01*
X143653999Y-106158556D01*
X143699054Y-106119515D01*
X143707816Y-106115051D01*
X143729789Y-106099086D01*
X143879786Y-105990109D01*
X143879788Y-105990106D01*
X143879792Y-105990104D01*
X144030104Y-105839792D01*
X144030106Y-105839788D01*
X144030109Y-105839786D01*
X144155048Y-105667820D01*
X144155047Y-105667820D01*
X144155051Y-105667816D01*
X144203454Y-105572819D01*
X144251427Y-105522025D01*
X144313938Y-105505116D01*
X145939246Y-105505116D01*
X145939246Y-104113654D01*
X144114912Y-104113654D01*
X144047873Y-104093969D01*
X144027231Y-104077335D01*
X143879786Y-103929890D01*
X143707817Y-103804949D01*
X143698504Y-103800204D01*
X143647707Y-103752230D01*
X143630912Y-103684409D01*
X143653449Y-103618274D01*
X143698507Y-103579232D01*
X143707555Y-103574622D01*
X143761716Y-103535270D01*
X143761717Y-103535270D01*
X143129408Y-102902962D01*
X143192993Y-102885925D01*
X143307007Y-102820099D01*
X143400099Y-102727007D01*
X143465925Y-102612993D01*
X143482962Y-102549408D01*
X144115270Y-103181717D01*
X144115270Y-103181716D01*
X144154622Y-103127554D01*
X144251095Y-102938217D01*
X144316757Y-102736130D01*
X144316757Y-102736127D01*
X144336779Y-102609718D01*
X144366708Y-102546584D01*
X144426019Y-102509652D01*
X144459252Y-102505116D01*
X145939014Y-102505116D01*
X145939014Y-101113654D01*
X144419679Y-101113654D01*
X144352640Y-101093969D01*
X144306885Y-101041165D01*
X144296941Y-100972007D01*
X144303497Y-100946321D01*
X144344091Y-100837482D01*
X144345950Y-100820189D01*
X144350500Y-100777873D01*
X144350500Y-100629117D01*
X144370185Y-100562078D01*
X144422989Y-100516323D01*
X144474500Y-100505117D01*
X145950801Y-100505117D01*
X145950801Y-99113654D01*
X144474499Y-99113654D01*
X144407460Y-99093969D01*
X144361705Y-99041165D01*
X144350499Y-98989654D01*
X144350499Y-98982129D01*
X144350498Y-98982123D01*
X144350497Y-98982116D01*
X144344091Y-98922517D01*
X144343072Y-98919786D01*
X144293797Y-98787671D01*
X144293793Y-98787664D01*
X144207547Y-98672455D01*
X144207544Y-98672452D01*
X144092335Y-98586206D01*
X144092328Y-98586202D01*
X143957482Y-98535908D01*
X143957483Y-98535908D01*
X143897883Y-98529501D01*
X143897881Y-98529500D01*
X143897873Y-98529500D01*
X143897864Y-98529500D01*
X142102129Y-98529500D01*
X142102123Y-98529501D01*
X142042516Y-98535908D01*
X141907671Y-98586202D01*
X141907664Y-98586206D01*
X141792455Y-98672452D01*
X141792452Y-98672455D01*
X141706206Y-98787664D01*
X141706202Y-98787671D01*
X141655908Y-98922517D01*
X141649501Y-98982116D01*
X141649501Y-98982123D01*
X141649500Y-98982135D01*
X139250500Y-98982135D01*
X139250500Y-88505116D01*
X145048015Y-88505116D01*
X145864142Y-88505116D01*
X145931181Y-88524801D01*
X145976936Y-88577605D01*
X145986880Y-88646763D01*
X145957855Y-88710319D01*
X145920437Y-88739601D01*
X145792179Y-88804951D01*
X145620213Y-88929890D01*
X145469890Y-89080213D01*
X145344951Y-89252179D01*
X145248444Y-89441585D01*
X145182753Y-89643760D01*
X145149500Y-89853713D01*
X145149500Y-90066286D01*
X145182753Y-90276239D01*
X145248444Y-90478414D01*
X145344951Y-90667820D01*
X145469890Y-90839786D01*
X145583430Y-90953326D01*
X145616915Y-91014649D01*
X145611931Y-91084341D01*
X145570059Y-91140274D01*
X145539083Y-91157189D01*
X145407669Y-91206203D01*
X145407664Y-91206206D01*
X145292455Y-91292452D01*
X145292452Y-91292455D01*
X145206206Y-91407664D01*
X145206202Y-91407671D01*
X145155908Y-91542517D01*
X145152411Y-91575048D01*
X145149501Y-91602123D01*
X145149500Y-91602135D01*
X145149500Y-93397870D01*
X145149501Y-93397876D01*
X145155908Y-93457483D01*
X145206202Y-93592328D01*
X145206206Y-93592335D01*
X145292452Y-93707544D01*
X145292455Y-93707547D01*
X145407664Y-93793793D01*
X145407671Y-93793797D01*
X145542517Y-93844091D01*
X145542516Y-93844091D01*
X145549444Y-93844835D01*
X145602127Y-93850500D01*
X147397872Y-93850499D01*
X147457483Y-93844091D01*
X147592331Y-93793796D01*
X147707546Y-93707546D01*
X147743846Y-93659056D01*
X147793793Y-93592336D01*
X147793793Y-93592334D01*
X147793796Y-93592331D01*
X147796238Y-93585782D01*
X147838106Y-93529852D01*
X147903570Y-93505433D01*
X147912419Y-93505117D01*
X149450801Y-93505117D01*
X149450801Y-92113654D01*
X147974499Y-92113654D01*
X147907460Y-92093969D01*
X147861705Y-92041165D01*
X147850499Y-91989654D01*
X147850499Y-91602129D01*
X147850498Y-91602123D01*
X147850497Y-91602116D01*
X147844091Y-91542517D01*
X147828233Y-91500000D01*
X147793797Y-91407671D01*
X147793793Y-91407664D01*
X147707547Y-91292455D01*
X147707544Y-91292452D01*
X147592335Y-91206206D01*
X147592328Y-91206202D01*
X147460917Y-91157189D01*
X147404983Y-91115318D01*
X147380566Y-91049853D01*
X147395418Y-90981580D01*
X147416563Y-90953332D01*
X147530104Y-90839792D01*
X147655051Y-90667816D01*
X147751557Y-90478412D01*
X147817246Y-90276243D01*
X147850500Y-90066287D01*
X147850500Y-89853713D01*
X147817246Y-89643757D01*
X147751557Y-89441588D01*
X147655051Y-89252184D01*
X147655049Y-89252181D01*
X147655048Y-89252179D01*
X147530109Y-89080213D01*
X147379786Y-88929890D01*
X147207820Y-88804951D01*
X147018415Y-88708444D01*
X146997463Y-88701636D01*
X146939789Y-88662197D01*
X146912593Y-88597837D01*
X146924509Y-88528991D01*
X146939014Y-88508724D01*
X146939014Y-87113654D01*
X145048015Y-87113654D01*
X145048015Y-88505116D01*
X139250500Y-88505116D01*
X139250500Y-86982135D01*
X151609500Y-86982135D01*
X151609500Y-88777870D01*
X151609501Y-88777876D01*
X151615908Y-88837483D01*
X151666202Y-88972328D01*
X151666206Y-88972335D01*
X151752452Y-89087544D01*
X151752455Y-89087547D01*
X151867664Y-89173793D01*
X151867671Y-89173797D01*
X151999082Y-89222810D01*
X152055016Y-89264681D01*
X152079433Y-89330145D01*
X152064582Y-89398418D01*
X152043431Y-89426673D01*
X151929889Y-89540215D01*
X151804951Y-89712179D01*
X151708444Y-89901585D01*
X151642753Y-90103760D01*
X151615435Y-90276239D01*
X151609500Y-90313713D01*
X151609500Y-90526287D01*
X151642754Y-90736243D01*
X151676399Y-90839792D01*
X151708444Y-90938414D01*
X151804951Y-91127820D01*
X151929890Y-91299786D01*
X152080213Y-91450109D01*
X152252182Y-91575050D01*
X152260946Y-91579516D01*
X152311742Y-91627491D01*
X152328536Y-91695312D01*
X152305998Y-91761447D01*
X152260946Y-91800484D01*
X152252182Y-91804949D01*
X152080213Y-91929890D01*
X151929890Y-92080213D01*
X151804951Y-92252179D01*
X151708444Y-92441585D01*
X151642753Y-92643760D01*
X151639818Y-92662292D01*
X151609500Y-92853713D01*
X151609500Y-93066287D01*
X151642754Y-93276243D01*
X151682273Y-93397870D01*
X151708444Y-93478414D01*
X151804951Y-93667820D01*
X151929890Y-93839786D01*
X152080213Y-93990109D01*
X152252182Y-94115050D01*
X152260946Y-94119516D01*
X152311742Y-94167491D01*
X152328536Y-94235312D01*
X152305998Y-94301447D01*
X152260946Y-94340484D01*
X152252182Y-94344949D01*
X152080213Y-94469890D01*
X151929890Y-94620213D01*
X151804951Y-94792179D01*
X151708444Y-94981585D01*
X151642753Y-95183760D01*
X151609500Y-95393713D01*
X151609500Y-95606286D01*
X151642753Y-95816239D01*
X151708444Y-96018414D01*
X151804951Y-96207820D01*
X151929890Y-96379786D01*
X152080213Y-96530109D01*
X152252182Y-96655050D01*
X152260946Y-96659516D01*
X152311742Y-96707491D01*
X152328536Y-96775312D01*
X152305998Y-96841447D01*
X152260946Y-96880484D01*
X152252182Y-96884949D01*
X152080213Y-97009890D01*
X151929890Y-97160213D01*
X151804951Y-97332179D01*
X151708444Y-97521585D01*
X151642753Y-97723760D01*
X151609500Y-97933713D01*
X151609500Y-98146286D01*
X151642753Y-98356239D01*
X151642753Y-98356241D01*
X151642754Y-98356243D01*
X151701131Y-98535909D01*
X151708444Y-98558414D01*
X151804951Y-98747820D01*
X151929890Y-98919786D01*
X152080213Y-99070109D01*
X152252182Y-99195050D01*
X152260946Y-99199516D01*
X152311742Y-99247491D01*
X152328536Y-99315312D01*
X152305998Y-99381447D01*
X152260946Y-99420484D01*
X152252182Y-99424949D01*
X152080213Y-99549890D01*
X151929890Y-99700213D01*
X151804951Y-99872179D01*
X151708444Y-100061585D01*
X151642753Y-100263760D01*
X151609500Y-100473713D01*
X151609500Y-100686287D01*
X151642754Y-100896243D01*
X151706999Y-101093969D01*
X151708444Y-101098414D01*
X151804951Y-101287820D01*
X151929890Y-101459786D01*
X152080213Y-101610109D01*
X152252182Y-101735050D01*
X152260946Y-101739516D01*
X152311742Y-101787491D01*
X152328536Y-101855312D01*
X152305998Y-101921447D01*
X152260946Y-101960484D01*
X152252182Y-101964949D01*
X152080213Y-102089890D01*
X151929890Y-102240213D01*
X151804951Y-102412179D01*
X151708444Y-102601585D01*
X151642753Y-102803760D01*
X151611593Y-103000500D01*
X151609500Y-103013713D01*
X151609500Y-103226287D01*
X151642754Y-103436243D01*
X151687716Y-103574622D01*
X151708444Y-103638414D01*
X151804951Y-103827820D01*
X151929890Y-103999786D01*
X152080213Y-104150109D01*
X152252182Y-104275050D01*
X152260946Y-104279516D01*
X152311742Y-104327491D01*
X152328536Y-104395312D01*
X152305998Y-104461447D01*
X152260946Y-104500484D01*
X152252182Y-104504949D01*
X152080213Y-104629890D01*
X151929890Y-104780213D01*
X151804951Y-104952179D01*
X151708444Y-105141585D01*
X151642753Y-105343760D01*
X151621426Y-105478414D01*
X151609500Y-105553713D01*
X151609500Y-105766287D01*
X151642754Y-105976243D01*
X151701991Y-106158556D01*
X151708444Y-106178414D01*
X151804951Y-106367820D01*
X151929890Y-106539786D01*
X152080213Y-106690109D01*
X152252179Y-106815048D01*
X152252181Y-106815049D01*
X152252184Y-106815051D01*
X152441588Y-106911557D01*
X152643757Y-106977246D01*
X152853713Y-107010500D01*
X152853714Y-107010500D01*
X153066286Y-107010500D01*
X153066287Y-107010500D01*
X153276243Y-106977246D01*
X153478412Y-106911557D01*
X153667816Y-106815051D01*
X153821313Y-106703530D01*
X153839786Y-106690109D01*
X153839788Y-106690106D01*
X153839792Y-106690104D01*
X153990104Y-106539792D01*
X153990106Y-106539788D01*
X153990109Y-106539786D01*
X154115048Y-106367820D01*
X154115047Y-106367820D01*
X154115051Y-106367816D01*
X154119514Y-106359054D01*
X154167488Y-106308259D01*
X154235308Y-106291463D01*
X154301444Y-106313999D01*
X154340486Y-106359056D01*
X154344951Y-106367820D01*
X154469890Y-106539786D01*
X154620213Y-106690109D01*
X154792179Y-106815048D01*
X154792181Y-106815049D01*
X154792184Y-106815051D01*
X154981588Y-106911557D01*
X155183757Y-106977246D01*
X155393713Y-107010500D01*
X155393714Y-107010500D01*
X155606286Y-107010500D01*
X155606287Y-107010500D01*
X155816243Y-106977246D01*
X156018412Y-106911557D01*
X156207816Y-106815051D01*
X156361313Y-106703530D01*
X156379786Y-106690109D01*
X156379788Y-106690106D01*
X156379792Y-106690104D01*
X156530104Y-106539792D01*
X156530106Y-106539788D01*
X156530109Y-106539786D01*
X156655048Y-106367820D01*
X156655047Y-106367820D01*
X156655051Y-106367816D01*
X156751557Y-106178412D01*
X156817246Y-105976243D01*
X156850500Y-105766287D01*
X156850500Y-105553713D01*
X156817246Y-105343757D01*
X156751557Y-105141588D01*
X156655051Y-104952184D01*
X156655049Y-104952181D01*
X156655048Y-104952179D01*
X156530109Y-104780213D01*
X156379786Y-104629890D01*
X156207820Y-104504951D01*
X156207115Y-104504591D01*
X156199054Y-104500485D01*
X156148259Y-104452512D01*
X156131463Y-104384692D01*
X156153999Y-104318556D01*
X156199054Y-104279515D01*
X156207816Y-104275051D01*
X156329075Y-104186952D01*
X156379786Y-104150109D01*
X156379788Y-104150106D01*
X156379792Y-104150104D01*
X156530104Y-103999792D01*
X156530106Y-103999788D01*
X156530109Y-103999786D01*
X156655048Y-103827820D01*
X156655047Y-103827820D01*
X156655051Y-103827816D01*
X156751557Y-103638412D01*
X156817246Y-103436243D01*
X156850500Y-103226287D01*
X156850500Y-103013713D01*
X156817246Y-102803757D01*
X156751557Y-102601588D01*
X156655051Y-102412184D01*
X156655049Y-102412181D01*
X156655048Y-102412179D01*
X156530109Y-102240213D01*
X156379786Y-102089890D01*
X156207820Y-101964951D01*
X156207115Y-101964591D01*
X156199054Y-101960485D01*
X156148259Y-101912512D01*
X156131463Y-101844692D01*
X156153999Y-101778556D01*
X156199054Y-101739515D01*
X156207816Y-101735051D01*
X156238939Y-101712439D01*
X156379786Y-101610109D01*
X156379788Y-101610106D01*
X156379792Y-101610104D01*
X156530104Y-101459792D01*
X156530106Y-101459788D01*
X156530109Y-101459786D01*
X156655048Y-101287820D01*
X156655047Y-101287820D01*
X156655051Y-101287816D01*
X156751557Y-101098412D01*
X156817246Y-100896243D01*
X156850500Y-100686287D01*
X156850500Y-100613654D01*
X160633498Y-100613654D01*
X160633498Y-102005117D01*
X162497332Y-102005117D01*
X162564371Y-102024802D01*
X162607817Y-102072822D01*
X162609431Y-102075990D01*
X162609432Y-102075992D01*
X162716657Y-102286433D01*
X162855483Y-102477510D01*
X163022490Y-102644517D01*
X163213567Y-102783343D01*
X163253632Y-102803757D01*
X163424003Y-102890566D01*
X163424005Y-102890566D01*
X163424008Y-102890568D01*
X163514590Y-102920000D01*
X163648631Y-102963553D01*
X163881903Y-103000500D01*
X163881908Y-103000500D01*
X164118097Y-103000500D01*
X164351368Y-102963553D01*
X164575992Y-102890568D01*
X164786433Y-102783343D01*
X164977510Y-102644517D01*
X165144517Y-102477510D01*
X165283343Y-102286433D01*
X165390568Y-102075992D01*
X165463553Y-101851368D01*
X165475085Y-101778556D01*
X165500500Y-101618097D01*
X165500500Y-101381902D01*
X168999500Y-101381902D01*
X168999500Y-101618097D01*
X169036446Y-101851368D01*
X169109433Y-102075996D01*
X169186378Y-102227007D01*
X169216657Y-102286433D01*
X169355483Y-102477510D01*
X169522490Y-102644517D01*
X169713567Y-102783343D01*
X169753632Y-102803757D01*
X169924003Y-102890566D01*
X169924005Y-102890566D01*
X169924008Y-102890568D01*
X170014590Y-102920000D01*
X170148631Y-102963553D01*
X170381903Y-103000500D01*
X170381908Y-103000500D01*
X170618097Y-103000500D01*
X170851368Y-102963553D01*
X171075992Y-102890568D01*
X171286433Y-102783343D01*
X171477510Y-102644517D01*
X171644517Y-102477510D01*
X171783343Y-102286433D01*
X171890568Y-102075992D01*
X171963553Y-101851368D01*
X171975085Y-101778556D01*
X172000500Y-101618097D01*
X172000500Y-101381902D01*
X171963553Y-101148631D01*
X171890566Y-100924003D01*
X171834002Y-100812991D01*
X171783343Y-100713567D01*
X171644517Y-100522490D01*
X171477510Y-100355483D01*
X171286433Y-100216657D01*
X171075996Y-100109433D01*
X170851368Y-100036446D01*
X170618097Y-99999500D01*
X170618092Y-99999500D01*
X170381908Y-99999500D01*
X170381903Y-99999500D01*
X170148631Y-100036446D01*
X169924003Y-100109433D01*
X169713566Y-100216657D01*
X169648735Y-100263760D01*
X169522490Y-100355483D01*
X169522488Y-100355485D01*
X169522487Y-100355485D01*
X169355485Y-100522487D01*
X169355485Y-100522488D01*
X169355483Y-100522490D01*
X169326721Y-100562078D01*
X169216657Y-100713566D01*
X169109433Y-100924003D01*
X169036446Y-101148631D01*
X168999500Y-101381902D01*
X165500500Y-101381902D01*
X165463553Y-101148631D01*
X165390566Y-100924003D01*
X165334002Y-100812991D01*
X165283343Y-100713567D01*
X165144517Y-100522490D01*
X164977510Y-100355483D01*
X164786433Y-100216657D01*
X164575996Y-100109433D01*
X164351368Y-100036446D01*
X164118097Y-99999500D01*
X164118092Y-99999500D01*
X163881908Y-99999500D01*
X163881903Y-99999500D01*
X163648631Y-100036446D01*
X163424003Y-100109433D01*
X163213566Y-100216657D01*
X163148735Y-100263760D01*
X163022490Y-100355483D01*
X163022488Y-100355485D01*
X163022487Y-100355485D01*
X162855485Y-100522487D01*
X162855485Y-100522488D01*
X162855483Y-100522490D01*
X162826721Y-100562078D01*
X162716657Y-100713566D01*
X162685286Y-100775136D01*
X162637311Y-100825932D01*
X162569490Y-100842727D01*
X162503355Y-100820189D01*
X162459904Y-100765474D01*
X162450801Y-100718841D01*
X162450801Y-100613654D01*
X160633498Y-100613654D01*
X156850500Y-100613654D01*
X156850500Y-100473713D01*
X156817246Y-100263757D01*
X156751557Y-100061588D01*
X156655051Y-99872184D01*
X156655049Y-99872181D01*
X156655048Y-99872179D01*
X156530109Y-99700213D01*
X156379786Y-99549890D01*
X156207820Y-99424951D01*
X156207115Y-99424591D01*
X156199054Y-99420485D01*
X156148259Y-99372512D01*
X156131463Y-99304692D01*
X156153999Y-99238556D01*
X156199054Y-99199515D01*
X156207816Y-99195051D01*
X156229789Y-99179086D01*
X156379786Y-99070109D01*
X156379788Y-99070106D01*
X156379792Y-99070104D01*
X156530104Y-98919792D01*
X156530106Y-98919788D01*
X156530109Y-98919786D01*
X156655048Y-98747820D01*
X156655047Y-98747820D01*
X156655051Y-98747816D01*
X156751557Y-98558412D01*
X156817246Y-98356243D01*
X156850500Y-98146287D01*
X156850500Y-97933713D01*
X156817246Y-97723757D01*
X156751557Y-97521588D01*
X156655051Y-97332184D01*
X156655049Y-97332181D01*
X156655048Y-97332179D01*
X156530109Y-97160213D01*
X156379786Y-97009890D01*
X156207817Y-96884949D01*
X156198504Y-96880204D01*
X156147707Y-96832230D01*
X156130912Y-96764409D01*
X156149569Y-96704123D01*
X156205964Y-96613654D01*
X161048015Y-96613654D01*
X161048015Y-98005116D01*
X162939014Y-98005116D01*
X162939014Y-97758794D01*
X162958699Y-97691755D01*
X162975333Y-97671113D01*
X163476212Y-97170233D01*
X163487482Y-97212292D01*
X163559890Y-97337708D01*
X163662292Y-97440110D01*
X163787708Y-97512518D01*
X163829765Y-97523787D01*
X163130893Y-98222658D01*
X163213828Y-98282914D01*
X163424197Y-98390102D01*
X163648752Y-98463065D01*
X163648751Y-98463065D01*
X163881948Y-98500000D01*
X164118052Y-98500000D01*
X164351247Y-98463065D01*
X164575802Y-98390102D01*
X164786163Y-98282918D01*
X164786169Y-98282914D01*
X164869104Y-98222658D01*
X164869105Y-98222658D01*
X164170233Y-97523787D01*
X164212292Y-97512518D01*
X164337708Y-97440110D01*
X164440110Y-97337708D01*
X164512518Y-97212292D01*
X164523787Y-97170234D01*
X165222658Y-97869105D01*
X165222658Y-97869104D01*
X165282914Y-97786169D01*
X165282918Y-97786163D01*
X165390102Y-97575802D01*
X165463065Y-97351247D01*
X165500000Y-97118052D01*
X165500000Y-96881947D01*
X169000000Y-96881947D01*
X169000000Y-97118052D01*
X169036934Y-97351247D01*
X169109897Y-97575802D01*
X169217087Y-97786174D01*
X169277338Y-97869104D01*
X169277340Y-97869105D01*
X169976212Y-97170233D01*
X169987482Y-97212292D01*
X170059890Y-97337708D01*
X170162292Y-97440110D01*
X170287708Y-97512518D01*
X170329765Y-97523787D01*
X169630893Y-98222658D01*
X169713828Y-98282914D01*
X169924197Y-98390102D01*
X170148752Y-98463065D01*
X170148751Y-98463065D01*
X170381948Y-98500000D01*
X170618052Y-98500000D01*
X170851247Y-98463065D01*
X171075802Y-98390102D01*
X171286163Y-98282918D01*
X171286169Y-98282914D01*
X171369104Y-98222658D01*
X171369105Y-98222658D01*
X170670233Y-97523787D01*
X170712292Y-97512518D01*
X170837708Y-97440110D01*
X170940110Y-97337708D01*
X171012518Y-97212292D01*
X171023787Y-97170233D01*
X171722658Y-97869105D01*
X171722658Y-97869104D01*
X171782914Y-97786169D01*
X171782918Y-97786163D01*
X171890102Y-97575802D01*
X171963065Y-97351247D01*
X172000000Y-97118052D01*
X172000000Y-96881947D01*
X171963065Y-96648752D01*
X171890102Y-96424197D01*
X171782914Y-96213828D01*
X171722658Y-96130894D01*
X171722658Y-96130893D01*
X171023787Y-96829765D01*
X171012518Y-96787708D01*
X170940110Y-96662292D01*
X170837708Y-96559890D01*
X170712292Y-96487482D01*
X170670234Y-96476212D01*
X171369105Y-95777340D01*
X171369104Y-95777338D01*
X171286174Y-95717087D01*
X171075802Y-95609897D01*
X170851247Y-95536934D01*
X170851248Y-95536934D01*
X170618052Y-95500000D01*
X170381948Y-95500000D01*
X170148752Y-95536934D01*
X169924197Y-95609897D01*
X169713830Y-95717084D01*
X169630894Y-95777340D01*
X170329766Y-96476212D01*
X170287708Y-96487482D01*
X170162292Y-96559890D01*
X170059890Y-96662292D01*
X169987482Y-96787708D01*
X169976212Y-96829765D01*
X169277340Y-96130894D01*
X169217084Y-96213830D01*
X169109897Y-96424197D01*
X169036934Y-96648752D01*
X169000000Y-96881947D01*
X165500000Y-96881947D01*
X165463065Y-96648752D01*
X165390102Y-96424197D01*
X165282914Y-96213828D01*
X165222658Y-96130894D01*
X165222658Y-96130893D01*
X164523787Y-96829765D01*
X164512518Y-96787708D01*
X164440110Y-96662292D01*
X164337708Y-96559890D01*
X164212292Y-96487482D01*
X164170234Y-96476212D01*
X164869105Y-95777340D01*
X164869104Y-95777339D01*
X164786174Y-95717087D01*
X164575802Y-95609897D01*
X164351247Y-95536934D01*
X164351248Y-95536934D01*
X164118052Y-95500000D01*
X163881948Y-95500000D01*
X163648752Y-95536934D01*
X163424197Y-95609897D01*
X163213830Y-95717084D01*
X163130894Y-95777340D01*
X163829766Y-96476212D01*
X163787708Y-96487482D01*
X163662292Y-96559890D01*
X163559890Y-96662292D01*
X163487482Y-96787708D01*
X163476212Y-96829766D01*
X162777340Y-96130894D01*
X162717084Y-96213830D01*
X162609897Y-96424195D01*
X162576178Y-96527973D01*
X162536740Y-96585648D01*
X162472381Y-96612846D01*
X162458247Y-96613654D01*
X161048015Y-96613654D01*
X156205964Y-96613654D01*
X156226752Y-96580305D01*
X155629408Y-95982962D01*
X155692993Y-95965925D01*
X155807007Y-95900099D01*
X155900099Y-95807007D01*
X155965925Y-95692993D01*
X155982962Y-95629408D01*
X156615270Y-96261717D01*
X156615270Y-96261716D01*
X156654622Y-96207554D01*
X156751095Y-96018217D01*
X156816756Y-95816131D01*
X156818489Y-95805197D01*
X156818489Y-95805194D01*
X156850000Y-95606246D01*
X156850000Y-95393753D01*
X156816757Y-95183872D01*
X156816757Y-95183869D01*
X156751095Y-94981782D01*
X156654624Y-94792449D01*
X156615270Y-94738282D01*
X156615269Y-94738282D01*
X155982962Y-95370590D01*
X155965925Y-95307007D01*
X155900099Y-95192993D01*
X155807007Y-95099901D01*
X155692993Y-95034075D01*
X155629409Y-95017037D01*
X156261716Y-94384728D01*
X156207547Y-94345373D01*
X156207547Y-94345372D01*
X156198500Y-94340763D01*
X156195006Y-94337463D01*
X156190362Y-94336224D01*
X156169847Y-94313700D01*
X156147706Y-94292788D01*
X156146550Y-94288122D01*
X156143314Y-94284569D01*
X156138233Y-94254533D01*
X156130912Y-94224966D01*
X156132462Y-94220416D01*
X156131661Y-94215678D01*
X156143623Y-94187668D01*
X156153451Y-94158832D01*
X156157735Y-94154624D01*
X156159103Y-94151423D01*
X156169464Y-94143106D01*
X156185196Y-94127657D01*
X156191600Y-94123313D01*
X156207816Y-94115051D01*
X156379792Y-93990104D01*
X156530104Y-93839792D01*
X156530106Y-93839788D01*
X156530109Y-93839786D01*
X156655048Y-93667820D01*
X156655047Y-93667820D01*
X156655051Y-93667816D01*
X156751557Y-93478412D01*
X156817246Y-93276243D01*
X156850500Y-93066287D01*
X156850500Y-92853713D01*
X156817246Y-92643757D01*
X156807465Y-92613654D01*
X160548015Y-92613654D01*
X160548015Y-94005116D01*
X162439014Y-94005116D01*
X162439014Y-93758794D01*
X162458699Y-93691755D01*
X162475333Y-93671113D01*
X162976212Y-93170233D01*
X162987482Y-93212292D01*
X163059890Y-93337708D01*
X163162292Y-93440110D01*
X163287708Y-93512518D01*
X163329765Y-93523787D01*
X162630893Y-94222658D01*
X162713828Y-94282914D01*
X162924197Y-94390102D01*
X163148752Y-94463065D01*
X163148751Y-94463065D01*
X163381948Y-94500000D01*
X163618052Y-94500000D01*
X163851247Y-94463065D01*
X164075802Y-94390102D01*
X164286163Y-94282918D01*
X164286169Y-94282914D01*
X164369104Y-94222658D01*
X164369105Y-94222658D01*
X163670233Y-93523787D01*
X163712292Y-93512518D01*
X163837708Y-93440110D01*
X163940110Y-93337708D01*
X164012518Y-93212292D01*
X164023787Y-93170233D01*
X164722658Y-93869105D01*
X164722658Y-93869104D01*
X164782914Y-93786169D01*
X164782918Y-93786163D01*
X164890102Y-93575802D01*
X164963065Y-93351247D01*
X165000000Y-93118052D01*
X165000000Y-92881947D01*
X168500000Y-92881947D01*
X168500000Y-93118052D01*
X168536934Y-93351247D01*
X168609897Y-93575802D01*
X168717087Y-93786174D01*
X168777338Y-93869104D01*
X168777340Y-93869105D01*
X169476212Y-93170233D01*
X169487482Y-93212292D01*
X169559890Y-93337708D01*
X169662292Y-93440110D01*
X169787708Y-93512518D01*
X169829765Y-93523787D01*
X169130893Y-94222658D01*
X169213828Y-94282914D01*
X169424197Y-94390102D01*
X169648752Y-94463065D01*
X169648751Y-94463065D01*
X169881948Y-94500000D01*
X170118052Y-94500000D01*
X170351247Y-94463065D01*
X170575802Y-94390102D01*
X170786163Y-94282918D01*
X170786169Y-94282914D01*
X170869104Y-94222658D01*
X170869105Y-94222658D01*
X170170233Y-93523787D01*
X170212292Y-93512518D01*
X170337708Y-93440110D01*
X170440110Y-93337708D01*
X170512518Y-93212292D01*
X170523787Y-93170234D01*
X171222658Y-93869105D01*
X171222658Y-93869104D01*
X171282914Y-93786169D01*
X171282918Y-93786163D01*
X171390102Y-93575802D01*
X171463065Y-93351247D01*
X171500000Y-93118052D01*
X171500000Y-92881947D01*
X171463065Y-92648752D01*
X171390102Y-92424197D01*
X171282914Y-92213828D01*
X171222658Y-92130894D01*
X171222658Y-92130893D01*
X170523787Y-92829765D01*
X170512518Y-92787708D01*
X170440110Y-92662292D01*
X170337708Y-92559890D01*
X170212292Y-92487482D01*
X170170234Y-92476212D01*
X170869105Y-91777340D01*
X170869104Y-91777338D01*
X170786174Y-91717087D01*
X170575802Y-91609897D01*
X170351247Y-91536934D01*
X170351248Y-91536934D01*
X170118052Y-91500000D01*
X169881948Y-91500000D01*
X169648752Y-91536934D01*
X169424197Y-91609897D01*
X169213830Y-91717084D01*
X169130894Y-91777340D01*
X169829766Y-92476212D01*
X169787708Y-92487482D01*
X169662292Y-92559890D01*
X169559890Y-92662292D01*
X169487482Y-92787708D01*
X169476212Y-92829766D01*
X168777340Y-92130894D01*
X168717084Y-92213830D01*
X168609897Y-92424197D01*
X168536934Y-92648752D01*
X168500000Y-92881947D01*
X165000000Y-92881947D01*
X164963065Y-92648752D01*
X164890102Y-92424197D01*
X164782914Y-92213828D01*
X164722658Y-92130894D01*
X164722658Y-92130893D01*
X164023787Y-92829765D01*
X164012518Y-92787708D01*
X163940110Y-92662292D01*
X163837708Y-92559890D01*
X163712292Y-92487482D01*
X163670234Y-92476212D01*
X164369105Y-91777340D01*
X164369104Y-91777339D01*
X164286174Y-91717087D01*
X164075802Y-91609897D01*
X163851247Y-91536934D01*
X163851248Y-91536934D01*
X163618052Y-91500000D01*
X163381948Y-91500000D01*
X163148752Y-91536934D01*
X162924197Y-91609897D01*
X162713830Y-91717084D01*
X162630894Y-91777340D01*
X163329766Y-92476212D01*
X163287708Y-92487482D01*
X163162292Y-92559890D01*
X163059890Y-92662292D01*
X162987482Y-92787708D01*
X162976212Y-92829766D01*
X162277340Y-92130894D01*
X162217084Y-92213830D01*
X162109897Y-92424195D01*
X162076178Y-92527973D01*
X162036740Y-92585648D01*
X161972381Y-92612846D01*
X161958247Y-92613654D01*
X160548015Y-92613654D01*
X156807465Y-92613654D01*
X156751557Y-92441588D01*
X156655051Y-92252184D01*
X156655049Y-92252181D01*
X156655048Y-92252179D01*
X156530109Y-92080213D01*
X156379790Y-91929894D01*
X156379788Y-91929893D01*
X156373615Y-91925408D01*
X156373606Y-91925401D01*
X156207816Y-91804949D01*
X156191087Y-91796425D01*
X156183789Y-91791268D01*
X156167421Y-91770609D01*
X156148259Y-91752512D01*
X156146065Y-91743655D01*
X156140399Y-91736503D01*
X156137798Y-91710274D01*
X156131463Y-91684692D01*
X156134406Y-91676054D01*
X156133506Y-91666975D01*
X156145497Y-91643505D01*
X156153999Y-91618556D01*
X156161618Y-91611953D01*
X156165296Y-91604756D01*
X156179404Y-91596542D01*
X156199054Y-91579515D01*
X156207816Y-91575051D01*
X156311116Y-91500000D01*
X156379786Y-91450109D01*
X156379788Y-91450106D01*
X156379792Y-91450104D01*
X156530104Y-91299792D01*
X156530106Y-91299788D01*
X156530109Y-91299786D01*
X156655048Y-91127820D01*
X156655047Y-91127820D01*
X156655051Y-91127816D01*
X156751557Y-90938412D01*
X156817246Y-90736243D01*
X156850500Y-90526287D01*
X156850500Y-90313713D01*
X156817246Y-90103757D01*
X156751557Y-89901588D01*
X156655051Y-89712184D01*
X156655049Y-89712181D01*
X156655048Y-89712179D01*
X156530109Y-89540213D01*
X156379786Y-89389890D01*
X156207820Y-89264951D01*
X156207115Y-89264591D01*
X156199054Y-89260485D01*
X156148259Y-89212512D01*
X156131463Y-89144692D01*
X156153999Y-89078556D01*
X156199054Y-89039515D01*
X156207816Y-89035051D01*
X156294138Y-88972335D01*
X156379786Y-88910109D01*
X156379788Y-88910106D01*
X156379792Y-88910104D01*
X156530104Y-88759792D01*
X156530106Y-88759788D01*
X156530109Y-88759786D01*
X156655048Y-88587820D01*
X156655047Y-88587820D01*
X156655051Y-88587816D01*
X156751557Y-88398412D01*
X156817246Y-88196243D01*
X156850500Y-87986287D01*
X156850500Y-87773713D01*
X156825149Y-87613654D01*
X160133498Y-87613654D01*
X160133498Y-89005117D01*
X161997332Y-89005117D01*
X162064371Y-89024802D01*
X162107817Y-89072822D01*
X162109431Y-89075990D01*
X162109432Y-89075992D01*
X162216657Y-89286433D01*
X162355483Y-89477510D01*
X162522490Y-89644517D01*
X162713567Y-89783343D01*
X162812991Y-89834002D01*
X162924003Y-89890566D01*
X162924005Y-89890566D01*
X162924008Y-89890568D01*
X163044412Y-89929689D01*
X163148631Y-89963553D01*
X163381903Y-90000500D01*
X163381908Y-90000500D01*
X163618097Y-90000500D01*
X163851368Y-89963553D01*
X163867384Y-89958349D01*
X164075992Y-89890568D01*
X164286433Y-89783343D01*
X164477510Y-89644517D01*
X164644517Y-89477510D01*
X164783343Y-89286433D01*
X164890568Y-89075992D01*
X164963553Y-88851368D01*
X164975193Y-88777876D01*
X165000500Y-88618097D01*
X165000500Y-88381902D01*
X168499500Y-88381902D01*
X168499500Y-88618097D01*
X168536446Y-88851368D01*
X168609433Y-89075996D01*
X168692858Y-89239725D01*
X168716657Y-89286433D01*
X168855483Y-89477510D01*
X169022490Y-89644517D01*
X169213567Y-89783343D01*
X169312991Y-89834002D01*
X169424003Y-89890566D01*
X169424005Y-89890566D01*
X169424008Y-89890568D01*
X169544412Y-89929689D01*
X169648631Y-89963553D01*
X169881903Y-90000500D01*
X169881908Y-90000500D01*
X170118097Y-90000500D01*
X170351368Y-89963553D01*
X170367384Y-89958349D01*
X170575992Y-89890568D01*
X170786433Y-89783343D01*
X170977510Y-89644517D01*
X171144517Y-89477510D01*
X171283343Y-89286433D01*
X171390568Y-89075992D01*
X171463553Y-88851368D01*
X171475193Y-88777876D01*
X171500500Y-88618097D01*
X171500500Y-88381902D01*
X171463553Y-88148631D01*
X171390566Y-87924003D01*
X171283342Y-87713566D01*
X171144517Y-87522490D01*
X170977510Y-87355483D01*
X170786433Y-87216657D01*
X170575996Y-87109433D01*
X170351368Y-87036446D01*
X170118097Y-86999500D01*
X170118092Y-86999500D01*
X169881908Y-86999500D01*
X169881903Y-86999500D01*
X169648631Y-87036446D01*
X169424003Y-87109433D01*
X169213566Y-87216657D01*
X169181720Y-87239795D01*
X169022490Y-87355483D01*
X169022488Y-87355485D01*
X169022487Y-87355485D01*
X168855485Y-87522487D01*
X168855485Y-87522488D01*
X168855483Y-87522490D01*
X168825501Y-87563757D01*
X168716657Y-87713566D01*
X168609433Y-87924003D01*
X168536446Y-88148631D01*
X168499500Y-88381902D01*
X165000500Y-88381902D01*
X164963553Y-88148631D01*
X164890566Y-87924003D01*
X164783342Y-87713566D01*
X164644517Y-87522490D01*
X164477510Y-87355483D01*
X164286433Y-87216657D01*
X164075996Y-87109433D01*
X163851368Y-87036446D01*
X163618097Y-86999500D01*
X163618092Y-86999500D01*
X163381908Y-86999500D01*
X163381903Y-86999500D01*
X163148631Y-87036446D01*
X162924003Y-87109433D01*
X162713566Y-87216657D01*
X162681720Y-87239795D01*
X162522490Y-87355483D01*
X162522488Y-87355485D01*
X162522487Y-87355485D01*
X162355485Y-87522487D01*
X162355485Y-87522488D01*
X162355483Y-87522490D01*
X162325501Y-87563757D01*
X162216657Y-87713566D01*
X162185286Y-87775136D01*
X162137311Y-87825932D01*
X162069490Y-87842727D01*
X162003355Y-87820189D01*
X161959904Y-87765474D01*
X161950801Y-87718841D01*
X161950801Y-87613654D01*
X160133498Y-87613654D01*
X156825149Y-87613654D01*
X156817246Y-87563757D01*
X156751557Y-87361588D01*
X156655051Y-87172184D01*
X156655049Y-87172181D01*
X156655048Y-87172179D01*
X156530109Y-87000213D01*
X156379786Y-86849890D01*
X156207820Y-86724951D01*
X156018414Y-86628444D01*
X156018413Y-86628443D01*
X156018412Y-86628443D01*
X155816243Y-86562754D01*
X155816241Y-86562753D01*
X155816240Y-86562753D01*
X155654957Y-86537208D01*
X155606287Y-86529500D01*
X155393713Y-86529500D01*
X155345042Y-86537208D01*
X155183760Y-86562753D01*
X154981585Y-86628444D01*
X154792179Y-86724951D01*
X154620215Y-86849889D01*
X154506673Y-86963431D01*
X154445350Y-86996915D01*
X154375658Y-86991931D01*
X154319725Y-86950059D01*
X154302810Y-86919082D01*
X154253797Y-86787671D01*
X154253793Y-86787664D01*
X154167547Y-86672455D01*
X154167544Y-86672452D01*
X154052335Y-86586206D01*
X154052328Y-86586202D01*
X153917482Y-86535908D01*
X153917483Y-86535908D01*
X153857883Y-86529501D01*
X153857881Y-86529500D01*
X153857873Y-86529500D01*
X153857864Y-86529500D01*
X152062129Y-86529500D01*
X152062123Y-86529501D01*
X152002516Y-86535908D01*
X151867671Y-86586202D01*
X151867664Y-86586206D01*
X151752455Y-86672452D01*
X151752452Y-86672455D01*
X151666206Y-86787664D01*
X151666202Y-86787671D01*
X151615908Y-86922517D01*
X151609501Y-86982116D01*
X151609500Y-86982135D01*
X139250500Y-86982135D01*
X139250500Y-84124000D01*
X139270185Y-84056961D01*
X139322989Y-84011206D01*
X139374500Y-84000000D01*
X173625500Y-84000000D01*
X173692539Y-84019685D01*
G37*
%TD.AperFunction*%
%TD*%
M02*
