M48
; DRILL file KiCad 10.0.2 date 2026-05-30T12:41:44
; FORMAT={-:-/ absolute / metric / decimal}
; #@! TF.CreationDate,2026-05-30T12:41:44-06:00
; #@! TF.GenerationSoftware,Kicad,Pcbnew,10.0.2
; #@! TF.FileFunction,Plated,1,2,PTH
FMAT,2
METRIC
; #@! TA.AperFunction,Plated,PTH,ComponentDrill
T1C1.000
; #@! TA.AperFunction,Plated,PTH,ComponentDrill
T2C1.100
%
G90
G05
T1
X143.0Y-99.88
X143.0Y-102.42
X143.0Y-104.96
X143.0Y-107.5
X146.5Y-89.96
X146.5Y-92.5
X152.96Y-87.88
X152.96Y-90.42
X152.96Y-92.96
X152.96Y-95.5
X152.96Y-98.04
X152.96Y-100.58
X152.96Y-103.12
X152.96Y-105.66
X155.5Y-87.88
X155.5Y-90.42
X155.5Y-92.96
X155.5Y-95.5
X155.5Y-98.04
X155.5Y-100.58
X155.5Y-103.12
X155.5Y-105.66
T2
X163.5Y-88.5
X163.5Y-93.0
X164.0Y-97.0
X164.0Y-101.5
X170.0Y-88.5
X170.0Y-93.0
X170.5Y-97.0
X170.5Y-101.5
M30
